<svg xmlns="http://www.w3.org/2000/svg" width="1200" height="720" viewBox="0 0 1200 720" role="img" aria-label="Tela fictícia de menu de atividades do InspFlow">
  <rect width="1200" height="720" fill="#e9f0f8"/>
  <rect x="40" y="32" width="1120" height="656" rx="24" fill="#ffffff" stroke="#cad8e8" stroke-width="4"/>

  <rect x="72" y="64" width="1056" height="56" rx="14" fill="#f2f7fc"/>
  <rect x="96" y="82" width="220" height="18" rx="9" fill="#d8e4f2"/>
  <rect x="980" y="80" width="40" height="24" rx="12" fill="#d4e2f2"/>
  <rect x="1032" y="80" width="40" height="24" rx="12" fill="#c8d8eb"/>

  <rect x="72" y="140" width="360" height="508" rx="18" fill="#f7fbff" stroke="#d8e6f4"/>
  <rect x="96" y="168" width="312" height="48" rx="12" fill="#dbe7f5"/>
  <rect x="96" y="232" width="312" height="48" rx="12" fill="#e5eef8"/>
  <rect x="96" y="296" width="312" height="48" rx="12" fill="#e5eef8"/>
  <rect x="96" y="360" width="312" height="48" rx="12" fill="#e5eef8"/>
  <rect x="96" y="424" width="312" height="48" rx="12" fill="#e5eef8"/>

  <rect x="456" y="140" width="320" height="508" rx="18" fill="#f7fbff" stroke="#d8e6f4"/>
  <rect x="484" y="170" width="264" height="18" rx="9" fill="#dbe7f5"/>
  <rect x="484" y="206" width="264" height="106" rx="14" fill="#eaf2fb"/>
  <rect x="484" y="332" width="264" height="106" rx="14" fill="#eaf2fb"/>
  <rect x="484" y="458" width="264" height="106" rx="14" fill="#eaf2fb"/>

  <rect x="800" y="140" width="328" height="244" rx="18" fill="#f7fbff" stroke="#d8e6f4"/>
  <rect x="828" y="172" width="272" height="16" rx="8" fill="#dbe7f5"/>
  <rect x="828" y="204" width="272" height="22" rx="11" fill="#eaf2fb"/>
  <rect x="828" y="236" width="272" height="22" rx="11" fill="#eaf2fb"/>
  <rect x="828" y="268" width="210" height="22" rx="11" fill="#eaf2fb"/>

  <rect x="800" y="408" width="328" height="240" rx="18" fill="#f7fbff" stroke="#d8e6f4"/>
  <rect x="828" y="440" width="272" height="16" rx="8" fill="#dbe7f5"/>
  <rect x="828" y="470" width="272" height="150" rx="12" fill="#eaf2fb"/>

  <text x="92" y="688" fill="#527198" font-family="Arial, sans-serif" font-size="22">Mock de interface — conteúdo anonimizado para demonstração</text>
</svg>
